<svg width="28" height="29" viewBox="0 0 28 29" fill="none" xmlns="http://www.w3.org/2000/svg">
<g opacity="0.2" filter="url(#filter0_b_109_501)">
<path fill-rule="evenodd" clip-rule="evenodd" d="M0 14.2686C0 6.5366 6.26801 0.268585 14 0.268585C21.732 0.268585 28 6.5366 28 14.2686C28 22.0006 21.732 28.2686 14 28.2686C6.26801 28.2686 0 22.0006 0 14.2686Z" fill="white"/>
</g>
<path fill-rule="evenodd" clip-rule="evenodd" d="M14.0007 6.80191C11.9728 6.80191 11.7184 6.81078 10.9219 6.84702C10.127 6.88342 9.58442 7.00927 9.10966 7.19391C8.61857 7.38463 8.20199 7.63974 7.78696 8.05492C7.37162 8.46995 7.11651 8.88653 6.92517 9.37747C6.74006 9.85239 6.61406 10.3951 6.57828 11.1897C6.54266 11.9862 6.53333 12.2408 6.53333 14.2687C6.53333 16.2965 6.54235 16.5502 6.57844 17.3467C6.61499 18.1416 6.74084 18.6841 6.92533 19.1589C7.1162 19.65 7.37131 20.0666 7.78649 20.4816C8.20136 20.8969 8.61795 21.1527 9.10873 21.3434C9.5838 21.528 10.1265 21.6539 10.9213 21.6903C11.7177 21.7265 11.9721 21.7354 13.9998 21.7354C16.0278 21.7354 16.2815 21.7265 17.0779 21.6903C17.8728 21.6539 18.416 21.528 18.8911 21.3434C19.382 21.1527 19.798 20.8969 20.2129 20.4816C20.6282 20.0666 20.8833 19.65 21.0747 19.1591C21.2582 18.6841 21.3842 18.1414 21.4215 17.3468C21.4573 16.5504 21.4667 16.2965 21.4667 14.2687C21.4667 12.2408 21.4573 11.9863 21.4215 11.1899C21.3842 10.395 21.2582 9.85239 21.0747 9.37763C20.8833 8.88653 20.6282 8.46995 20.2129 8.05492C19.7975 7.63959 19.3822 7.38447 18.8906 7.19391C18.4146 7.00927 17.8717 6.88342 17.0768 6.84702C16.2804 6.81078 16.0268 6.80191 13.9984 6.80191H14.0007ZM13.3308 8.14746C13.5296 8.14715 13.7515 8.14746 14.0007 8.14746C15.9943 8.14746 16.2306 8.15461 17.0178 8.19039C17.7459 8.22368 18.141 8.34533 18.4042 8.44753C18.7526 8.58286 19.001 8.74464 19.2622 9.00598C19.5236 9.26732 19.6853 9.51621 19.821 9.86466C19.9232 10.1275 20.045 10.5227 20.0781 11.2507C20.1139 12.0378 20.1217 12.2742 20.1217 14.2669C20.1217 16.2596 20.1139 16.4961 20.0781 17.2832C20.0448 18.0112 19.9232 18.4063 19.821 18.6692C19.6857 19.0176 19.5236 19.2658 19.2622 19.5269C19.0009 19.7883 18.7528 19.95 18.4042 20.0854C18.1413 20.1881 17.7459 20.3094 17.0178 20.3427C16.2307 20.3785 15.9943 20.3862 14.0007 20.3862C12.0069 20.3862 11.7706 20.3785 10.9835 20.3427C10.2555 20.3091 9.86035 20.1874 9.59699 20.0852C9.24854 19.9499 8.99965 19.7881 8.73832 19.5268C8.47698 19.2654 8.3152 19.0172 8.17955 18.6686C8.07735 18.4057 7.95555 18.0106 7.92242 17.2826C7.88664 16.4954 7.87949 16.259 7.87949 14.2651C7.87949 12.2711 7.88664 12.0359 7.92242 11.2488C7.95571 10.5208 8.07735 10.1257 8.17955 9.86248C8.31489 9.51403 8.47698 9.26514 8.73832 9.0038C8.99965 8.74247 9.24854 8.58069 9.59699 8.44504C9.86019 8.34237 10.2555 8.22104 10.9835 8.18759C11.6723 8.15648 11.9392 8.14715 13.3308 8.14559V8.14746ZM17.9864 9.38725C17.4917 9.38725 17.0903 9.78812 17.0903 10.283C17.0903 10.7776 17.4917 11.179 17.9864 11.179C18.481 11.179 18.8824 10.7776 18.8824 10.283C18.8824 9.78828 18.481 9.38725 17.9864 9.38725ZM14.0007 10.4342C11.8831 10.4342 10.1662 12.151 10.1662 14.2686C10.1662 16.3862 11.8831 18.1023 14.0007 18.1023C16.1183 18.1023 17.8346 16.3862 17.8346 14.2686C17.8346 12.151 16.1183 10.4342 14.0007 10.4342ZM14.0007 11.7797C15.3752 11.7797 16.4896 12.894 16.4896 14.2686C16.4896 15.6431 15.3752 16.7575 14.0007 16.7575C12.626 16.7575 11.5118 15.6431 11.5118 14.2686C11.5118 12.894 12.626 11.7797 14.0007 11.7797Z" fill="#3A50B3"/>
<defs>
<filter id="filter0_b_109_501" x="-4" y="-3.73141" width="36" height="36" filterUnits="userSpaceOnUse" color-interpolation-filters="sRGB">
<feFlood flood-opacity="0" result="BackgroundImageFix"/>
<feGaussianBlur in="BackgroundImageFix" stdDeviation="2"/>
<feComposite in2="SourceAlpha" operator="in" result="effect1_backgroundBlur_109_501"/>
<feBlend mode="normal" in="SourceGraphic" in2="effect1_backgroundBlur_109_501" result="shape"/>
</filter>
</defs>
</svg>
