<svg width="24" height="25" viewBox="0 0 24 25" fill="none" xmlns="http://www.w3.org/2000/svg">
<path d="M20 11.0351H22C22 5.90513 18.127 2.03613 12.99 2.03613V4.03613C17.052 4.03613 20 6.97913 20 11.0351Z" fill="white"/>
<path d="M13 8.03637C15.103 8.03637 16 8.93337 16 11.0364H18C18 7.81137 16.225 6.03637 13 6.03637V8.03637ZM16.422 13.4794C16.2298 13.3047 15.9773 13.2116 15.7178 13.2196C15.4582 13.2276 15.212 13.3362 15.031 13.5224L12.638 15.9834C12.062 15.8734 10.904 15.5124 9.71198 14.3234C8.51998 13.1304 8.15898 11.9694 8.05198 11.3974L10.511 9.00337C10.6974 8.8225 10.8061 8.57619 10.8141 8.31658C10.8222 8.05696 10.7289 7.80441 10.554 7.61237L6.85898 3.54937C6.68402 3.35673 6.44086 3.23988 6.18113 3.22363C5.9214 3.20739 5.66557 3.29303 5.46798 3.46237L3.29798 5.32337C3.12509 5.49689 3.0219 5.72782 3.00798 5.97237C2.99298 6.22237 2.70698 12.1444 7.29898 16.7384C11.305 20.7434 16.323 21.0364 17.705 21.0364C17.907 21.0364 18.031 21.0304 18.064 21.0284C18.3085 21.0147 18.5393 20.911 18.712 20.7374L20.572 18.5664C20.7414 18.3689 20.8273 18.1131 20.8112 17.8534C20.7951 17.5937 20.6785 17.3505 20.486 17.1754L16.422 13.4794Z" fill="white"/>
</svg>
