<svg width="28" height="29" viewBox="0 0 28 29" fill="none" xmlns="http://www.w3.org/2000/svg">
<path fill-rule="evenodd" clip-rule="evenodd" d="M0 14.2686C0 6.53657 6.26801 0.268555 14 0.268555C21.732 0.268555 28 6.53657 28 14.2686C28 22.0005 21.732 28.2686 14 28.2686C6.26801 28.2686 0 22.0005 0 14.2686Z" fill="white"/>
<path fill-rule="evenodd" clip-rule="evenodd" d="M21.4667 14.2581C21.4667 14.763 21.4153 15.2673 21.3143 15.7588C21.2158 16.2387 21.07 16.7098 20.8789 17.1601C20.6923 17.6025 20.4608 18.0288 20.1902 18.4264C19.9237 18.8214 19.6167 19.1921 19.2794 19.5299C18.9414 19.8663 18.5696 20.1725 18.1747 20.4401C17.7758 20.7088 17.3489 20.94 16.9063 21.1275C16.4553 21.3175 15.9831 21.4632 15.5036 21.5614C15.0114 21.6627 14.5053 21.7144 13.9997 21.7144C13.4936 21.7144 12.9875 21.6627 12.496 21.5614C12.0159 21.4632 11.5437 21.3175 11.0931 21.1275C10.6504 20.94 10.2231 20.7088 9.82424 20.4401C9.42938 20.1725 9.05748 19.8663 8.72022 19.5299C8.38261 19.1921 8.0756 18.8214 7.80872 18.4264C7.53964 18.0288 7.30774 17.6025 7.12034 17.1601C6.92927 16.7098 6.78308 16.2386 6.68427 15.7588C6.58438 15.2673 6.53333 14.763 6.53333 14.2581C6.53333 13.7527 6.58435 13.2474 6.6843 12.757C6.78311 12.2771 6.9293 11.8053 7.12037 11.3556C7.30777 10.9129 7.53967 10.4862 7.80875 10.0887C8.07563 9.69328 8.38264 9.32335 8.72025 8.98512C9.05751 8.6487 9.42941 8.34327 9.82427 8.07604C10.2231 7.80624 10.6505 7.57508 11.0931 7.3872C11.5437 7.19675 12.0159 7.05078 12.4961 6.95322C12.9876 6.85274 13.4936 6.80176 13.9997 6.80176C14.5054 6.80176 15.0114 6.85274 15.5036 6.95322C15.9831 7.05081 16.4553 7.19678 16.9063 7.3872C17.3489 7.57505 17.7759 7.80624 18.1747 8.07604C18.5696 8.34327 18.9415 8.6487 19.2795 8.98512C19.6167 9.32335 19.9237 9.69328 20.1902 10.0887C20.4608 10.4862 20.6923 10.913 20.8789 11.3556C21.07 11.8053 21.2158 12.2771 21.3143 12.757C21.4153 13.2474 21.4667 13.7527 21.4667 14.2581ZM11.279 8.49872C9.50078 9.3372 8.17363 10.9734 7.7598 12.9452C7.9279 12.9467 10.5851 12.9802 13.6467 12.1679C12.543 10.2099 11.3639 8.61197 11.279 8.49872ZM14.175 13.1484C10.8918 14.1299 7.74121 14.0593 7.62819 14.0549C7.62635 14.1234 7.62308 14.1896 7.62308 14.2581C7.62308 15.8938 8.24108 17.3851 9.25686 18.5127C9.25467 18.5094 10.9997 15.418 14.4408 14.3069C14.5239 14.2792 14.6085 14.2544 14.6924 14.2304C14.5323 13.8685 14.3576 13.5059 14.175 13.1484ZM18.2108 9.47919C17.0882 8.4907 15.6141 7.8911 13.9996 7.8911C13.4815 7.8911 12.9787 7.95373 12.4971 8.0695C12.5926 8.19767 13.7904 9.7843 14.8809 11.7838C17.2869 10.8831 18.1951 9.50248 18.2108 9.47919ZM15.127 15.2855C15.1128 15.2902 15.0986 15.2942 15.0847 15.2993C11.3225 16.609 10.0938 19.2484 10.0805 19.2772C11.1631 20.1179 12.5208 20.625 13.9997 20.625C14.8827 20.625 15.7239 20.4455 16.4891 20.1204C16.3947 19.5641 16.0243 17.6141 15.127 15.2855ZM17.5629 19.5386C18.9947 18.5738 20.0115 17.0418 20.2952 15.2673C20.1639 15.225 18.3799 14.6611 16.3218 14.9906C17.1582 17.2857 17.498 19.1549 17.5629 19.5386ZM15.3717 12.7326C15.5197 13.0362 15.663 13.3453 15.7953 13.6559C15.8424 13.7673 15.8883 13.8765 15.9331 13.9857C18.1237 13.7105 20.2818 14.1736 20.374 14.1925C20.3594 12.6831 19.8187 11.2977 18.924 10.2132C18.912 10.2302 17.8893 11.7059 15.3717 12.7326Z" fill="#3A50B3"/>
</svg>
