<svg width="29" height="29" viewBox="0 0 29 29" fill="none" xmlns="http://www.w3.org/2000/svg">
<path d="M14.5 28.2686C6.50505 28.2686 0 21.928 0 14.1351C0 6.34228 6.50505 0 14.5 0C22.4949 0 29 6.34062 29 14.1335C29 21.9263 22.4949 28.2669 14.5 28.2669V28.2686Z" fill="white"/>
<path d="M18.6458 13.0767L18.4122 14.9012C18.373 15.2069 18.1088 15.4345 17.7934 15.4345H14.7625V23.0612C14.442 23.0895 14.1181 23.1028 13.7908 23.1028C13.0595 23.1028 12.3436 23.0313 11.6532 22.8951V15.4329H9.32116C9.10637 15.4329 8.9325 15.2617 8.9325 15.0524V12.7693C8.9325 12.56 9.10637 12.3888 9.32116 12.3888H11.6532V8.96597C11.6532 6.86572 13.3936 5.1626 15.5398 5.1626H18.2605C18.4753 5.1626 18.6492 5.33374 18.6492 5.5431V7.82612C18.6492 8.03548 18.4753 8.20663 18.2605 8.20663H16.3172C15.4597 8.20663 14.7625 8.88788 14.7625 9.72864V12.3905H18.027C18.402 12.3905 18.6918 12.7112 18.6458 13.0751V13.0767Z" fill="#3A50B3"/>
</svg>
