<svg width="28" height="29" viewBox="0 0 28 29" fill="none" xmlns="http://www.w3.org/2000/svg">
<g opacity="0.2" filter="url(#filter0_b_92_569)">
<path fill-rule="evenodd" clip-rule="evenodd" d="M0 14.2686C0 6.53661 6.26801 0.268593 14 0.268593C21.732 0.268593 28 6.53661 28 14.2686C28 22.0006 21.732 28.2686 14 28.2686C6.26801 28.2686 0 22.0006 0 14.2686Z" fill="white"/>
</g>
<path fill-rule="evenodd" clip-rule="evenodd" d="M14.0008 6.80193C11.973 6.80193 11.7185 6.81079 10.922 6.84704C10.1271 6.88344 9.58455 7.00928 9.10979 7.19393C8.61869 7.38464 8.20211 7.63976 7.78708 8.05494C7.37174 8.46997 7.11663 8.88655 6.9253 9.37749C6.74018 9.8524 6.61418 10.3951 6.5784 11.1897C6.54278 11.9862 6.53345 12.2408 6.53345 14.2687C6.53345 16.2965 6.54247 16.5502 6.57856 17.3467C6.61511 18.1416 6.74096 18.6842 6.92545 19.1589C7.11632 19.65 7.37143 20.0666 7.78662 20.4816C8.20149 20.897 8.61807 21.1527 9.10885 21.3434C9.58392 21.5281 10.1267 21.6539 10.9214 21.6903C11.7179 21.7265 11.9722 21.7354 13.9999 21.7354C16.0279 21.7354 16.2816 21.7265 17.078 21.6903C17.8729 21.6539 18.4161 21.5281 18.8912 21.3434C19.3822 21.1527 19.7981 20.897 20.213 20.4816C20.6283 20.0666 20.8834 19.65 21.0748 19.1591C21.2583 18.6842 21.3843 18.1414 21.4217 17.3468C21.4574 16.5504 21.4668 16.2965 21.4668 14.2687C21.4668 12.2408 21.4574 11.9863 21.4217 11.1899C21.3843 10.395 21.2583 9.8524 21.0748 9.37764C20.8834 8.88655 20.6283 8.46997 20.213 8.05494C19.7977 7.6396 19.3823 7.38449 18.8908 7.19393C18.4147 7.00928 17.8719 6.88344 17.077 6.84704C16.2805 6.81079 16.0269 6.80193 13.9985 6.80193H14.0008ZM13.331 8.14747C13.5298 8.14716 13.7516 8.14747 14.0008 8.14747C15.9944 8.14747 16.2307 8.15463 17.018 8.19041C17.746 8.2237 18.1411 8.34534 18.4043 8.44754C18.7527 8.58288 19.0012 8.74466 19.2623 9.00599C19.5237 9.26733 19.6855 9.51622 19.8211 9.86467C19.9233 10.1276 20.0451 10.5227 20.0782 11.2507C20.114 12.0378 20.1218 12.2743 20.1218 14.2669C20.1218 16.2596 20.114 16.4961 20.0782 17.2832C20.045 18.0112 19.9233 18.4063 19.8211 18.6692C19.6858 19.0177 19.5237 19.2658 19.2623 19.5269C19.001 19.7883 18.7529 19.9501 18.4043 20.0854C18.1414 20.1881 17.746 20.3094 17.018 20.3427C16.2308 20.3785 15.9944 20.3862 14.0008 20.3862C12.007 20.3862 11.7707 20.3785 10.9836 20.3427C10.2556 20.3091 9.86047 20.1874 9.59711 20.0852C9.24867 19.9499 8.99977 19.7881 8.73844 19.5268C8.4771 19.2655 8.31532 19.0172 8.17968 18.6686C8.07748 18.4057 7.95567 18.0106 7.92254 17.2826C7.88676 16.4955 7.87961 16.259 7.87961 14.2651C7.87961 12.2711 7.88676 12.0359 7.92254 11.2488C7.95583 10.5208 8.07748 10.1257 8.17968 9.86249C8.31501 9.51404 8.4771 9.26515 8.73844 9.00382C8.99977 8.74248 9.24867 8.5807 9.59711 8.44506C9.86032 8.34239 10.2556 8.22105 10.9836 8.18761C11.6724 8.1565 11.9393 8.14716 13.331 8.14561V8.14747ZM17.9865 9.38727C17.4918 9.38727 17.0905 9.78814 17.0905 10.283C17.0905 10.7776 17.4918 11.179 17.9865 11.179C18.4811 11.179 18.8825 10.7776 18.8825 10.283C18.8825 9.78829 18.4811 9.38727 17.9865 9.38727ZM14.0008 10.4342C11.8832 10.4342 10.1663 12.1511 10.1663 14.2687C10.1663 16.3862 11.8832 18.1024 14.0008 18.1024C16.1184 18.1024 17.8347 16.3862 17.8347 14.2687C17.8347 12.1511 16.1184 10.4342 14.0008 10.4342ZM14.0008 11.7797C15.3753 11.7797 16.4897 12.894 16.4897 14.2687C16.4897 15.6432 15.3753 16.7576 14.0008 16.7576C12.6261 16.7576 11.5119 15.6432 11.5119 14.2687C11.5119 12.894 12.6261 11.7797 14.0008 11.7797Z" fill="white"/>
<defs>
<filter id="filter0_b_92_569" x="-4" y="-3.73141" width="36" height="36" filterUnits="userSpaceOnUse" color-interpolation-filters="sRGB">
<feFlood flood-opacity="0" result="BackgroundImageFix"/>
<feGaussianBlur in="BackgroundImageFix" stdDeviation="2"/>
<feComposite in2="SourceAlpha" operator="in" result="effect1_backgroundBlur_92_569"/>
<feBlend mode="normal" in="SourceGraphic" in2="effect1_backgroundBlur_92_569" result="shape"/>
</filter>
</defs>
</svg>
