<svg width="28" height="29" viewBox="0 0 28 29" fill="none" xmlns="http://www.w3.org/2000/svg">
<path fill-rule="evenodd" clip-rule="evenodd" d="M0 14.2686C0 6.53657 6.26801 0.268555 14 0.268555C21.732 0.268555 28 6.53657 28 14.2686C28 22.0005 21.732 28.2686 14 28.2686C6.26801 28.2686 0 22.0005 0 14.2686Z" fill="white"/>
<path fill-rule="evenodd" clip-rule="evenodd" d="M14.0007 6.80176C11.9728 6.80176 11.7184 6.81062 10.9219 6.84687C10.127 6.88327 9.58442 7.00912 9.10966 7.19376C8.61857 7.38447 8.20199 7.63959 7.78696 8.05477C7.37162 8.4698 7.11651 8.88638 6.92517 9.37732C6.74006 9.85223 6.61406 10.395 6.57828 11.1896C6.54266 11.986 6.53333 12.2407 6.53333 14.2685C6.53333 16.2963 6.54235 16.5501 6.57844 17.3465C6.61499 18.1414 6.74084 18.684 6.92533 19.1588C7.1162 19.6498 7.37131 20.0664 7.78649 20.4815C8.20136 20.8968 8.61795 21.1525 9.10873 21.3432C9.5838 21.5279 10.1265 21.6537 10.9213 21.6901C11.7177 21.7264 11.9721 21.7352 13.9998 21.7352C16.0278 21.7352 16.2815 21.7264 17.0779 21.6901C17.8728 21.6537 18.416 21.5279 18.8911 21.3432C19.382 21.1525 19.798 20.8968 20.2129 20.4815C20.6282 20.0664 20.8833 19.6498 21.0747 19.1589C21.2582 18.684 21.3842 18.1413 21.4215 17.3467C21.4573 16.5502 21.4667 16.2963 21.4667 14.2685C21.4667 12.2407 21.4573 11.9862 21.4215 11.1897C21.3842 10.3948 21.2582 9.85223 21.0747 9.37747C20.8833 8.88638 20.6282 8.4698 20.2129 8.05477C19.7975 7.63943 19.3822 7.38432 18.8906 7.19376C18.4146 7.00912 17.8717 6.88327 17.0768 6.84687C16.2804 6.81062 16.0268 6.80176 13.9984 6.80176H14.0007ZM13.3308 8.14731C13.5296 8.147 13.7515 8.14731 14.0007 8.14731C15.9943 8.14731 16.2306 8.15446 17.0178 8.19024C17.7459 8.22353 18.141 8.34518 18.4042 8.44738C18.7526 8.58271 19.001 8.74449 19.2622 9.00583C19.5236 9.26716 19.6853 9.51605 19.821 9.8645C19.9232 10.1274 20.045 10.5225 20.0781 11.2505C20.1139 12.0376 20.1217 12.2741 20.1217 14.2668C20.1217 16.2595 20.1139 16.4959 20.0781 17.283C20.0448 18.011 19.9232 18.4061 19.821 18.669C19.6857 19.0175 19.5236 19.2656 19.2622 19.5268C19.0009 19.7881 18.7528 19.9499 18.4042 20.0852C18.1413 20.1879 17.7459 20.3092 17.0178 20.3425C16.2307 20.3783 15.9943 20.3861 14.0007 20.3861C12.0069 20.3861 11.7706 20.3783 10.9835 20.3425C10.2555 20.3089 9.86035 20.1873 9.59699 20.0851C9.24854 19.9497 8.99965 19.788 8.73832 19.5266C8.47698 19.2653 8.3152 19.017 8.17955 18.6684C8.07735 18.4055 7.95555 18.0104 7.92242 17.2824C7.88664 16.4953 7.87949 16.2588 7.87949 14.2649C7.87949 12.271 7.88664 12.0358 7.92242 11.2487C7.95571 10.5206 8.07735 10.1255 8.17955 9.86232C8.31489 9.51388 8.47698 9.26498 8.73832 9.00365C8.99965 8.74231 9.24854 8.58053 9.59699 8.44489C9.86019 8.34222 10.2555 8.22088 10.9835 8.18744C11.6723 8.15633 11.9392 8.147 13.3308 8.14544V8.14731ZM17.9864 9.3871C17.4917 9.3871 17.0903 9.78797 17.0903 10.2828C17.0903 10.7775 17.4917 11.1788 17.9864 11.1788C18.481 11.1788 18.8824 10.7775 18.8824 10.2828C18.8824 9.78813 18.481 9.3871 17.9864 9.3871ZM14.0007 10.434C11.8831 10.434 10.1662 12.1509 10.1662 14.2685C10.1662 16.3861 11.8831 18.1022 14.0007 18.1022C16.1183 18.1022 17.8346 16.3861 17.8346 14.2685C17.8346 12.1509 16.1183 10.434 14.0007 10.434ZM14.0007 11.7796C15.3752 11.7796 16.4896 12.8938 16.4896 14.2685C16.4896 15.643 15.3752 16.7574 14.0007 16.7574C12.626 16.7574 11.5118 15.643 11.5118 14.2685C11.5118 12.8938 12.626 11.7796 14.0007 11.7796Z" fill="#3A50B3"/>
</svg>
