<svg width="28" height="29" viewBox="0 0 28 29" fill="none" xmlns="http://www.w3.org/2000/svg">
<path fill-rule="evenodd" clip-rule="evenodd" d="M0 14.2686C0 6.53657 6.26801 0.268555 14 0.268555C21.732 0.268555 28 6.53657 28 14.2686C28 22.0005 21.732 28.2686 14 28.2686C6.26801 28.2686 0 22.0005 0 14.2686Z" fill="white"/>
<path d="M10.1026 8.91513C10.082 7.98046 9.41362 7.26855 8.32826 7.26855C7.2429 7.26855 6.53333 7.98046 6.53333 8.91513C6.53333 9.83044 7.22193 10.5628 8.28708 10.5628H8.30735C9.41362 10.5628 10.1026 9.83044 10.1026 8.91513Z" fill="#3A50B3"/>
<path d="M9.89365 11.864H6.72094V21.3967H9.89365V11.864Z" fill="#3A50B3"/>
<path d="M17.6827 11.6401C19.7705 11.6401 21.3356 13.0029 21.3356 15.9309L21.3355 21.3966H18.1629V16.2967C18.1629 15.0157 17.7038 14.1415 16.5553 14.1415C15.6788 14.1415 15.1567 14.7308 14.9274 15.3C14.8435 15.504 14.8229 15.7882 14.8229 16.0731V21.3969H11.6498C11.6498 21.3969 11.6916 12.7587 11.6498 11.8642H14.8229V13.2145C15.244 12.5654 15.9982 11.6401 17.6827 11.6401Z" fill="#3A50B3"/>
</svg>
