<svg width="156" height="102" viewBox="0 0 156 102" fill="none" xmlns="http://www.w3.org/2000/svg">
<g id="Blue color" clip-path="url(#clip0_109_479)">
<path id="Vector" d="M51.975 28.7902C54.1884 28.7902 55.9827 26.9859 55.9827 24.7601C55.9827 22.5343 54.1884 20.73 51.975 20.73C49.7616 20.73 47.9673 22.5343 47.9673 24.7601C47.9673 26.9859 49.7616 28.7902 51.975 28.7902Z" fill="#3A50B3"/>
<path id="Vector_2" d="M72.9653 9.54636H72.5771C66.3526 9.74786 61.3304 14.7981 61.1426 21.0574L61.105 21.4604L58.7881 46.7621H58.7505C58.9634 52.971 64.0482 58.0842 70.2726 58.2479H70.4229L70.5857 58.2353C76.7977 58.0716 81.8825 52.9458 82.0954 46.7495H74.7437C74.5434 48.9912 72.6647 50.8048 70.3728 50.8678C68.0935 50.7418 66.3025 48.966 66.1021 46.7621H66.0395V46.3087L68.4316 21.0196H68.4692C68.6696 18.8156 70.4605 17.0399 72.7148 16.9139C75.0318 16.9769 76.9104 18.7779 77.1108 21.0322H84.4624C84.2495 14.8233 79.1647 9.71008 72.9528 9.54636H72.9653Z" fill="#3A50B3"/>
<path id="Vector_3" d="M118.854 27.7827C116.837 25.415 113.581 24.1052 109.673 24.1052C103.111 24.1052 97.9133 28.3116 97.0366 34.3442C96.5857 37.455 97.3497 40.3516 99.1907 42.5052C101.232 44.8729 104.401 46.1827 108.12 46.1827C113.355 46.1827 117.726 43.6261 119.693 39.4575H112.88C111.828 40.5532 110.312 41.1703 108.697 41.1703C106.041 41.1703 104.163 39.7345 103.662 37.329L103.562 36.8379H120.419C120.544 36.4349 120.657 35.9185 120.745 35.2636C121.208 32.3795 120.544 29.7977 118.841 27.7953L118.854 27.7827ZM103.875 33.3619L104.138 32.7826C105.165 30.4778 107.144 29.1177 109.448 29.1177C111.99 29.1177 113.819 30.566 114.207 32.8833L114.282 33.3619H103.862H103.875Z" fill="#3A50B3"/>
<path id="Vector_4" d="M156 55.0616V47.6688C153.708 47.4673 151.88 45.6286 151.679 43.3239H151.579L154.998 7.20386H147.671L146.219 23.148L145.63 22.6695C143.601 21.0448 140.858 20.1884 137.69 20.1884C131.127 20.1884 125.93 24.3949 125.053 30.4275C124.602 33.5382 125.366 36.4349 127.207 38.5885C129.249 40.9562 132.417 42.266 136.137 42.266C139.118 42.266 141.835 41.4473 144.014 39.9109L144.741 39.3945L144.34 43.3239C144.553 49.6965 149.663 54.8475 156 55.049V55.0616ZM136.575 36.0948C133.857 36.0948 131.641 33.8657 131.641 31.1327C131.641 28.3998 133.857 26.1706 136.575 26.1706C139.293 26.1706 141.51 28.3998 141.51 31.1327C141.51 33.8657 139.293 36.0948 136.575 36.0948Z" fill="#3A50B3"/>
<path id="Vector_5" d="M141.723 52.1901L138.629 45.6412L136.475 46.5606C133.92 47.8577 131.215 48.9786 128.46 49.8728C122.548 51.7997 115.184 54.1926 106.492 51.9634C104.013 51.3337 100.28 50.364 96.7486 47.4547C94.9952 46.0064 93.9181 44.6085 92.553 42.8327C91.0376 40.8554 89.3093 38.6136 86.3411 35.8933C86.2158 35.78 86.078 35.6666 85.9528 35.5533L85.3517 35.0243L101.871 20.1506C102.698 19.1935 103.411 18.1104 103.95 16.9517C104.438 15.9064 105.603 13.4505 105.277 10.302C104.902 6.57413 102.547 3.13593 99.1281 1.33497C96.6859 0.0503656 94.3314 -0.100764 92.6532 0.0503657L93.5299 7.39275C94.106 7.38016 94.9201 7.45572 95.7216 7.87133C96.949 8.51363 97.8507 9.79823 97.9884 11.0576C98.1012 12.1533 97.6378 13.1357 97.3247 13.7906C97.0992 14.2692 96.8112 14.7225 96.473 15.1507L82.0328 28.1227L80.5925 29.2184L80.9307 25.6417H73.6041L72.0636 42.4423H79.3276L79.578 39.7975L80.1792 40.3013C80.5925 40.6539 80.9933 40.9939 81.3815 41.3592C83.8863 43.6513 85.3391 45.5404 86.7293 47.354C88.1821 49.2431 89.685 51.1952 92.0771 53.1599C96.8613 57.1144 101.746 58.3613 104.664 59.1169C107.544 59.86 110.538 60.2252 113.556 60.2252C120.457 60.2252 126.381 58.2983 130.714 56.9003C133.82 55.8928 136.888 54.6208 139.806 53.1473L141.735 52.2027L141.723 52.1901Z" fill="#3A50B3"/>
<path id="Vector_6" d="M62.9961 67.5928C65.2095 67.5928 67.0038 65.7884 67.0038 63.5627C67.0038 61.3369 65.2095 59.5325 62.9961 59.5325C60.7827 59.5325 58.9884 61.3369 58.9884 63.5627C58.9884 65.7884 60.7827 67.5928 62.9961 67.5928Z" fill="#3A50B3"/>
<path id="Vector_7" d="M124.464 74.7463C124.928 71.8748 124.264 69.293 122.561 67.2905C120.544 64.9228 117.288 63.613 113.381 63.613C106.818 63.613 101.62 67.8195 100.744 73.8521C100.293 76.9628 101.057 79.8595 102.898 82.0131C104.939 84.3808 108.108 85.6906 111.828 85.6906C117.063 85.6906 121.434 83.134 123.4 78.9653H116.587C115.535 80.061 114.019 80.6781 112.404 80.6781C109.749 80.6781 107.87 79.2424 107.369 76.8369L107.269 76.3457H124.126C124.251 75.9427 124.364 75.4263 124.452 74.7715L124.464 74.7463ZM107.594 72.8571L107.857 72.2778C108.884 69.9731 110.863 68.6129 113.168 68.6129C115.71 68.6129 117.539 70.0612 117.927 72.3786L118.002 72.8571H107.582H107.594Z" fill="#3A50B3"/>
<path id="Vector_8" d="M85.0385 82.139C91.6012 82.139 96.7987 77.9326 97.6753 71.9C98.1262 68.7892 97.3622 65.8926 95.5212 63.739C93.4798 61.3713 90.3112 60.0615 86.5915 60.0615C84.2996 60.0615 82.1831 60.5401 80.3044 61.4594L79.6532 61.7869L79.8035 60.263H72.4769L69.3333 94.6072H30.922V101.987H75.9836L76.3969 97.252V96.1815L77.8998 80.2373L78.4509 80.5396C80.2919 81.5723 82.5713 82.1264 85.0385 82.1264V82.139ZM86.5665 66.0311C89.2842 66.0311 91.501 68.2603 91.501 70.9932C91.501 73.7261 89.2842 75.9553 86.5665 75.9553C83.8488 75.9553 81.632 73.7261 81.632 70.9932C81.632 68.2603 83.8488 66.0311 86.5665 66.0311Z" fill="#3A50B3"/>
<path id="Vector_9" d="M134.208 84.7964L134.408 84.3178L134.822 84.6201C136.776 86.0558 139.33 86.8241 142.224 86.8241C147.571 86.8241 151.354 83.537 152.093 78.2475C152.831 73.2602 150.64 71.1947 148.523 69.1923C146.82 67.5802 145.204 66.0689 145.279 63.2478V62.9959L145.342 62.9707L146.294 59.6711H138.829L133.494 70.5524L125.404 85.5395C124.577 86.6477 123.663 87.6049 122.648 88.4361C117.877 92.3403 110.913 93.5367 104.889 91.4839C100.531 89.9978 97.7254 87.1767 96.0848 84.9475L90.0858 89.2044C92.3526 92.3277 96.2977 96.3452 102.522 98.4737C105.177 99.3804 107.995 99.8464 110.888 99.8464C116.987 99.8464 122.811 97.8313 127.27 94.1665C130.263 91.7106 132.655 88.4739 134.196 84.7964H134.208ZM140.182 70.1872L140.558 70.8421C141.197 71.963 142.111 72.7816 143 73.5624C144.265 74.6707 145.455 75.7286 145.229 77.3785C144.966 79.1542 143.25 80.3381 140.946 80.3381C138.93 80.3381 137.214 79.4817 136.337 78.0459L136.224 77.8444L140.195 70.1872H140.182Z" fill="#3A50B3"/>
<path id="Vector_10" d="M58.7254 70.7287L57.1599 87.8316H64.4239L66.052 70.7287H58.7254Z" fill="#3A50B3"/>
<path id="Vector_11" d="M47.7042 32.0269L46.0761 49.7847H53.3401L55.0308 32.0269H47.7042Z" fill="#3A50B3"/>
<path id="Vector_12" d="M51.0356 54.2178L46.4769 73.4365L43.4711 60.2882H36.3073L32.6127 76.4843L28.9056 60.2882H21.9422L28.2919 88.0709H36.921L39.8892 75.0737L42.8574 88.0709H50.1089L57.8487 54.2178H51.0356Z" fill="#3A50B3"/>
<path id="Vector_13" d="M37.9981 20.6166L35.5934 33.9916L33.9778 41.0695L30.9595 27.8835H23.7958L20.0886 44.0795L17.947 34.7221L14.052 15.579C13.5636 12.2541 11.8854 9.2693 9.3054 7.16608C6.68786 4.99989 3.3815 3.96717 0 4.20645L0.701349 11.0199C2.27938 10.9569 3.80732 11.4607 5.03468 12.4682C6.02409 13.2742 6.75048 14.3447 7.1262 15.5664L7.36416 16.6747L7.40173 16.8006L15.8054 55.6535H24.422L27.3902 42.669L30.3584 55.6535H37.6098L45.237 20.604H38.0106L37.9981 20.6166Z" fill="#3A50B3"/>
</g>
<defs>
<clipPath id="clip0_109_479">
<rect width="156" height="102" fill="white"/>
</clipPath>
</defs>
</svg>
